<svg xmlns="http://www.w3.org/2000/svg" width="93" height="59.5" viewBox="0 0 93 59.5"><g transform="translate(-136 -146)"><path d="M54.117,47.963h0l-.106.783h.106l.742-.224V52.1h1.06V47.628h-1.06a2.47,2.47,0,0,1-.742.335m9.119,1.006a2.82,2.82,0,0,1-2.015.783,3.125,3.125,0,0,1-1.166-.224.567.567,0,0,1-.424-.559c0-.224.106-.335.424-.559a3.638,3.638,0,0,1,1.166-.224,2.18,2.18,0,0,1,2.015.783Zm.424-.783a3.667,3.667,0,0,0-2.333-.671,4.229,4.229,0,0,0-1.909.335,1.165,1.165,0,0,0-.742,1.118,1.032,1.032,0,0,0,.742,1.006,4.034,4.034,0,0,0,1.8.335,3.353,3.353,0,0,0,2.227-.671h.106v.224a1.536,1.536,0,0,1-.318.894,2.3,2.3,0,0,1-.848.559,2.792,2.792,0,0,1-.954.112,2.709,2.709,0,0,1-1.8-.559l-.636.447h0a4.359,4.359,0,0,0,2.545.783,4.009,4.009,0,0,0,2.121-.559,1.991,1.991,0,0,0,.954-1.677,1.944,1.944,0,0,0-.954-1.677M39.8,50.2l1.06-1.789,1.06,1.789Zm.53-2.683-2.757,4.472h1.166l.636-1.006h3.075l.636,1.006h1.166L41.5,47.516Zm-5.408,3.242a1.727,1.727,0,0,1-1.06.335H31.637V48.3h2.121a1.547,1.547,0,0,1,1.166.447,1.406,1.406,0,0,1,0,2.012m-1.272-3.242H30.682v4.472h3.075a2.831,2.831,0,0,0,1.7-.559,1.992,1.992,0,0,0,.742-1.565,2.057,2.057,0,0,0-.742-1.677,2.123,2.123,0,0,0-1.8-.671m13.043,0H45.74v4.472h4.454v-.894h-3.5Zm24.707.447h0l-.106.783H71.4l.742-.224V52.1H73.2V47.628h-1.06a2.47,2.47,0,0,1-.742.335m-4.454,0h0l-.106.783h.106l.742-.224V52.1h1.06V47.628H67.69a5.033,5.033,0,0,1-.742.335m-47.293,2.46h7.529v-1.23H19.654Zm57.155,0h7.529v-1.23H76.809ZM36.62,2.236h.212c.53,0,.742.224.742.559,0,.224-.106.671-.848.671l-3.393.447-.106-1.23ZM31.955,4.7l.318,2.683v.112h.106l1.272-.224h.106V7.155l-.212-1.9L36.2,4.919,38,6.708h.106L39.59,6.6h.318L39.7,6.373c-.318-.335-1.272-1.453-1.7-1.9h0a2.3,2.3,0,0,0,.848-.559A1.477,1.477,0,0,0,39.271,2.8V2.571a2.109,2.109,0,0,0-.742-1.453A2.812,2.812,0,0,0,37.151.783h-.424c-2.439.335-5.09.671-5.09.671h-.106v.112a27.709,27.709,0,0,0,.424,3.13M23.79,8.832v.112H23.9l1.272-.224h.106V8.609l-.318-1.9,3.605-.671h.106V5.926l-.106-1.006V4.808h-.106l-3.605.671-.212-1.342,5.2-.894h.106V3.13l-.106-1.006V2.012h-.106s-4.878.894-6.68,1.23h-.106v.112ZM61.221,6.261c1.06,0,3.181.224,3.181.224h.106V6.373l.106-1.006V5.255h-.106s-1.8-.112-3.393-.224c-.636,0-1.485-.112-1.8-.112V3.913c.318,0,1.272.112,1.8.112s1.591.112,1.591.112h.106V4.025l.106-1.006V2.907h-.106s-1.166-.112-1.7-.112c-.636,0-1.379-.112-1.8-.112V1.677c.424,0,1.7.112,2.439.112.954,0,2.651.112,2.651.112h.106V1.789L64.615.783V.671h-.106S62.388.559,61.115.447,57.828.335,57.828.335h-.106V.447l-.106,5.7v.112h.106a17.357,17.357,0,0,1,3.5,0M44.785,1.789l1.166,1.789-2.121.112ZM42.347,6.373h0l.106-.112.636-1.23L46.8,4.808l.742,1.118v.112h1.7l-.106-.224L45.528.224V.112h-.106L43.937.224h-.106V.335L40.862,6.261l-.106.224h.212ZM48.6,1.23v.112h2.969v4.7h1.485v-4.7h2.969V0H52.42c-1.272,0-3.711.112-3.711.112H48.6V1.23Zm20.89,5.7c.954.112,2.651.335,2.651.335h.106V7.155l.106-1.006V6.037h-.106s-1.166-.112-1.909-.224A19.232,19.232,0,0,0,68.22,5.59l.424-4.584V.894h-.106L67.16.783h-.106V.894l-.424,5.59V6.6h.106s1.8.224,2.757.335M82.535,8.944h.106V8.832l1.06-5.7V3.019H83.6l-1.272-.335h-.106V2.8l-.954,5.7v.112h.106ZM79.46,8.273h.106V8.162l.212-1.006V7.044h-.106l-4.029-.671L76.279,1.9V1.789h-.106l-1.379-.224h-.106v.112l-.742,5.7v.112h.106Zm-39.34,29.4a2.941,2.941,0,0,1-3.181-3.242,4.434,4.434,0,0,1,4.56-3.913,1.114,1.114,0,0,1,1.06.671,12.6,12.6,0,0,1,.742,2.46c.53,1.677.636,1.789,1.06,2.907a11.959,11.959,0,0,1-4.242,1.118M70.765,22.361c-5.3.671-6.362,2.8-7.211,3.578V24.149c0-.783-1.166-1.453-2.545-1.453H55.283l-2.227,1.9v.335c2.015.112,2.757.671,2.757,1.9v9.839a5.581,5.581,0,0,1-.53,1.9,2.935,2.935,0,0,1-.53.671c-.212.112-.424.112-.318.112,0,0-.318,0-.424-.112a1.626,1.626,0,0,1-.53-.671c-.424-.783-4.348-11.18-4.772-12.186a5.286,5.286,0,0,0-3.923-3.354A16.739,16.739,0,0,0,41.5,22.7H35.984l-2.227,1.9h.848c4.666,0,5.726-.112,7.211,4.025-9.968.894-12.407,3.913-12.619,7.044a3.256,3.256,0,0,0,.106,1.006,4.385,4.385,0,0,1-.53.112c-5.726,1.118-10.392.224-13.573-2.571a10.765,10.765,0,0,1-3.5-8.385c.106-4.919,3.287-9.95,10.18-9.95a11.926,11.926,0,0,1,4.136,1.006,30.79,30.79,0,0,1,3.075,2.124H29.2l3.923-3.242v-.112a23.526,23.526,0,0,0-5.09-1.9c-7.423-1.9-14.633-.783-19.723,3.019A12.427,12.427,0,0,0,2.9,27.168c.106,6.708,5.938,13.64,17.072,13.752a38.17,38.17,0,0,0,11.134-1.789c.106,0,.212-.112.318-.112a3.463,3.463,0,0,1,.636.335c2.863,1.23,6.68,1.565,13.255-1.342a5.463,5.463,0,0,0,3.393,1.565H64.933v-.559a4.353,4.353,0,0,1-1.166-2.571V28.286c.742-1.118,2.015-2.124,4.878-2.124a2.425,2.425,0,0,1,2.227,1.118H71.3V22.361h-.53ZM83.808,39.019h0L83.49,38.8h-.212a1.794,1.794,0,0,1-1.7-1.789V15.429c0-.783-1.166-1.342-2.545-1.342H73.31l-2.227,1.677v.224c2.015.112,2.757.671,2.757,1.789V36.783A2.952,2.952,0,0,0,76.809,39.8h5.514a1.581,1.581,0,0,0,1.485-.783M90.276,20.46c1.8,0,3.287-1.006,3.287-2.348,0-1.23-1.485-2.348-3.287-2.348s-3.287,1.006-3.287,2.348c0,1.23,1.485,2.348,3.287,2.348m4.454,16.1V24.149c0-.783-1.166-1.453-2.545-1.453H86.459l-2.227,1.9v.335c2.015.112,2.757.671,2.757,1.9v9.839a4.042,4.042,0,0,1-1.06,2.571V39.8H95.9v-.559a3.868,3.868,0,0,1-1.166-2.683" transform="translate(133.104 146)" fill="#1a5632"/><line x2="3" transform="translate(184.5 205)" fill="none" stroke="rgba(112,112,112,0)" stroke-width="1"/></g></svg>